<?xml version="1.0" encoding="UTF-8"?>
<svg width="52px" height="52px" viewBox="0 0 52 52" version="1.1" xmlns="http://www.w3.org/2000/svg" xmlns:xlink="http://www.w3.org/1999/xlink">
    <defs></defs>
    <g id="Page-1" stroke="none" stroke-width="1" fill="none" fill-rule="evenodd">
        <g id="wp_dashboard_msg_gas" transform="translate(-290.000000, -116.000000)">
            <g id="GA_plugin" transform="translate(182.000000, 94.000000)">
                <g id="vi_logo_on_white-copy" transform="translate(110.000000, 24.000000)">
                    <path d="M23.847619,47.5428571 C36.952381,47.5428571 47.5428571,36.952381 47.5428571,23.7714286 C47.5428571,10.6666667 36.952381,0 23.847619,0 C10.7428571,0.0761904762 0.152380952,10.6666667 0.152380952,23.7714286 C0.152380952,36.8761905 10.7428571,47.5428571 23.847619,47.5428571" id="Fill-1" fill="#FEF200" fill-rule="nonzero"></path>
                    <path d="M23.6190476,48 C36.647619,48 47.2380952,37.2571429 47.2380952,24 C47.2380952,10.7428571 36.647619,0 23.6190476,0 C10.5904762,0 0,10.7428571 0,24 C0,37.2571429 10.5904762,48 23.6190476,48 L23.6190476,48 L23.6190476,48 L23.6190476,48 L23.6190476,48 Z" id="Stroke-2" stroke="#000000" stroke-width="4"></path>
                    <path d="M16.7619048,34.2857143 L21.3333333,34.2857143 L27.6571429,18.6666667 L22.9333333,18.6666667 L20.952381,23.6190476 C20.3428571,25.2190476 19.6571429,27.047619 19.047619,28.5714286 L19.047619,28.5714286 C18.5142857,26.9714286 17.9047619,25.2952381 17.2952381,23.6190476 L15.4666667,18.5904762 L10.3619048,18.5904762 L16.7619048,34.2857143 L16.7619048,34.2857143 L16.7619048,34.2857143 L16.7619048,34.2857143 L16.7619048,34.2857143 Z M29.2571429,34.2857143 L34.0571429,34.2857143 L34.0571429,18.6666667 L29.2571429,18.6666667 L29.2571429,34.2857143 L29.2571429,34.2857143 L29.2571429,34.2857143 L29.2571429,34.2857143 Z" id="Fill-4" fill="#000000" fill-rule="nonzero"></path>
                    <polygon id="Fill-5" fill="#000000" fill-rule="nonzero" points="29.2571429 16.0761905 34.0571429 16.0761905 34.0571429 11.2761905 29.2571429 11.2761905"></polygon>
                </g>
            </g>
        </g>
    </g>
</svg>